<?xml version="1.0" encoding="UTF-8"?>
<svg id="Layer_2" data-name="Layer 2" xmlns="http://www.w3.org/2000/svg" viewBox="0 0 685.07 685.07">
  <defs>
    <style>
      .cls-1 {
        fill: #28247b;
        stroke-width: 0px;
      }
    </style>
  </defs>
  <g id="Layer_1-2" data-name="Layer 1">
    <path class="cls-1" d="m342.53,685.07c-87.77,0-159.18-71.41-159.18-159.18v-24.18h-24.18C71.41,501.71,0,430.3,0,342.53s71.41-159.18,159.18-159.18h24.18v-24.18C183.36,71.41,254.76,0,342.53,0s159.18,71.41,159.18,159.18v24.18h24.18c87.77,0,159.18,71.41,159.18,159.18s-71.41,159.18-159.18,159.18h-24.18v24.18c0,87.77-71.41,159.18-159.18,159.18Zm-86.81-183.36v24.18c0,47.87,38.94,86.81,86.81,86.81s86.81-38.94,86.81-86.81v-24.18h-173.62Zm0-72.37h270.17c47.87,0,86.81-38.94,86.81-86.81s-38.94-86.81-86.81-86.81h-96.55v-96.55c0-47.87-38.94-86.81-86.81-86.81s-86.81,38.94-86.81,86.81v270.17Zm-96.55-173.62c-47.87,0-86.81,38.94-86.81,86.81s38.94,86.81,86.81,86.81h24.18v-173.62h-24.18Z"/>
  </g>
</svg>