<?xml version="1.0" encoding="UTF-8"?>
<svg id="Layer_2" data-name="Layer 2" xmlns="http://www.w3.org/2000/svg" viewBox="0 0 878.18 197.32">
  <defs>
    <style>
      .cls-1 {
        stroke-width: 0px;
      }
    </style>
  </defs>
  <g id="Layer_1-2" data-name="Layer 1">
    <g>
      <g>
        <path class="cls-1" d="m249.11,156.1V44.35h74.7v18h-54.15v30.9h47.4v18.15h-47.4v44.7h-20.55Z"/>
        <path class="cls-1" d="m332.35,65.35v-21h19.8v21h-19.8Zm0,90.75v-81.6h19.8v81.6h-19.8Z"/>
        <path class="cls-1" d="m370.15,156.1v-81.6h18.6v18.15l-1.5-2.7c1.9-6.1,4.88-10.35,8.92-12.75,4.05-2.4,8.92-3.6,14.63-3.6h4.8v17.55h-7.05c-5.6,0-10.1,1.7-13.5,5.1-3.4,3.4-5.1,8.2-5.1,14.4v45.45h-19.8Z"/>
        <path class="cls-1" d="m454.45,157.9c-8.7,0-16.27-2.07-22.73-6.23-6.45-4.15-10.93-9.77-13.42-16.87l14.85-7.05c2.1,4.6,5.02,8.2,8.77,10.8,3.75,2.6,7.93,3.9,12.53,3.9,3.5,0,6.3-.8,8.4-2.4,2.1-1.6,3.15-3.7,3.15-6.3,0-1.6-.43-2.92-1.28-3.98-.85-1.05-1.98-1.95-3.38-2.7-1.4-.75-3-1.37-4.8-1.87l-13.35-3.75c-6.8-1.9-11.98-4.92-15.52-9.08-3.55-4.15-5.32-9.02-5.32-14.62,0-5,1.28-9.38,3.83-13.13,2.55-3.75,6.1-6.67,10.65-8.77,4.55-2.1,9.77-3.15,15.67-3.15,7.7,0,14.5,1.85,20.4,5.55,5.9,3.7,10.1,8.9,12.6,15.6l-15,7.05c-1.4-3.7-3.75-6.62-7.05-8.77-3.3-2.15-7-3.23-11.1-3.23-3.3,0-5.9.73-7.8,2.18-1.9,1.45-2.85,3.43-2.85,5.93,0,1.4.4,2.65,1.2,3.75.8,1.1,1.92,2,3.38,2.7,1.45.7,3.12,1.35,5.02,1.95l13.05,3.9c6.7,2,11.87,5,15.52,9,3.65,4,5.47,8.9,5.47,14.7,0,4.9-1.3,9.22-3.9,12.97-2.6,3.75-6.2,6.67-10.8,8.78-4.6,2.1-10,3.15-16.2,3.15Z"/>
        <path class="cls-1" d="m531.69,157c-9.2,0-16.35-2.52-21.45-7.58-5.1-5.05-7.65-12.17-7.65-21.37v-36h-13.95v-17.55h1.5c4,0,7.07-1.05,9.22-3.15,2.15-2.1,3.22-5.15,3.22-9.15v-6.3h19.8v18.6h18.75v17.55h-18.75v34.95c0,2.7.47,5,1.42,6.9.95,1.9,2.45,3.35,4.5,4.35,2.05,1,4.67,1.5,7.87,1.5.7,0,1.52-.05,2.47-.15.95-.1,1.87-.2,2.78-.3v16.8c-1.4.2-3,.4-4.8.6s-3.45.3-4.95.3Z"/>
        <path class="cls-1" d="m577.89,157.9c-5.7,0-10.67-.95-14.92-2.85-4.25-1.9-7.53-4.62-9.83-8.17-2.3-3.55-3.45-7.67-3.45-12.37s1.02-8.52,3.08-12.07c2.05-3.55,5.18-6.53,9.37-8.93,4.2-2.4,9.5-4.1,15.9-5.1l26.55-4.35v15l-22.8,4.05c-3.9.7-6.8,1.93-8.7,3.67-1.9,1.75-2.85,4.07-2.85,6.98s1.07,5.02,3.22,6.67c2.15,1.65,4.82,2.48,8.03,2.48,4.1,0,7.72-.88,10.88-2.63,3.15-1.75,5.57-4.17,7.28-7.27,1.7-3.1,2.55-6.45,2.55-10.05v-21.15c0-3.5-1.35-6.42-4.05-8.78-2.7-2.35-6.3-3.52-10.8-3.52-4.2,0-7.93,1.15-11.18,3.45-3.25,2.3-5.62,5.25-7.12,8.85l-16.05-7.8c1.6-4.3,4.13-8.03,7.58-11.17,3.45-3.15,7.52-5.62,12.23-7.43,4.7-1.8,9.8-2.7,15.3-2.7,6.7,0,12.6,1.23,17.7,3.67,5.1,2.45,9.08,5.88,11.93,10.27,2.85,4.4,4.27,9.45,4.27,15.15v54.3h-18.6v-13.95l4.2-.15c-2.1,3.4-4.63,6.3-7.57,8.7-2.95,2.4-6.25,4.2-9.9,5.4-3.65,1.2-7.72,1.8-12.23,1.8Z"/>
        <path class="cls-1" d="m636.99,65.35v-21h19.8v21h-19.8Zm0,90.75v-81.6h19.8v81.6h-19.8Z"/>
        <path class="cls-1" d="m709.89,157.9c-7.9,0-14.98-1.87-21.22-5.62-6.25-3.75-11.17-8.87-14.77-15.38-3.6-6.5-5.4-13.7-5.4-21.6s1.82-15.2,5.48-21.6c3.65-6.4,8.57-11.5,14.77-15.3,6.2-3.8,13.2-5.7,21-5.7,6.2,0,11.72,1.23,16.57,3.67,4.85,2.45,8.67,5.88,11.47,10.27l-3,4.05v-48.15h19.65v113.55h-18.6v-15.75l2.1,3.9c-2.8,4.5-6.7,7.9-11.7,10.2-5,2.3-10.45,3.45-16.35,3.45Zm2.1-18c4.4,0,8.33-1.05,11.78-3.15,3.45-2.1,6.15-5,8.1-8.7,1.95-3.7,2.92-7.95,2.92-12.75s-.98-8.9-2.92-12.6c-1.95-3.7-4.65-6.6-8.1-8.7-3.45-2.1-7.38-3.15-11.78-3.15s-8.35,1.05-11.85,3.15c-3.5,2.1-6.23,5-8.17,8.7-1.95,3.7-2.93,7.9-2.93,12.6s.98,9.05,2.93,12.75c1.95,3.7,4.67,6.6,8.17,8.7,3.5,2.1,7.45,3.15,11.85,3.15Z"/>
        <path class="cls-1" d="m767.03,156.1v-21h19.8v21h-19.8Z"/>
        <path class="cls-1" d="m799.28,156.1V42.56h19.8v113.55h-19.8Z"/>
        <path class="cls-1" d="m868.43,157c-9.2,0-16.35-2.52-21.45-7.58-5.1-5.05-7.65-12.17-7.65-21.37v-36h-13.95v-17.55h1.5c4,0,7.07-1.05,9.22-3.15,2.15-2.1,3.22-5.15,3.22-9.15v-6.3h19.8v18.6h18.75v17.55h-18.75v34.95c0,2.7.47,5,1.42,6.9.95,1.9,2.45,3.35,4.5,4.35,2.05,1,4.67,1.5,7.87,1.5.7,0,1.52-.05,2.47-.15.95-.1,1.87-.2,2.78-.3v16.8c-1.4.2-3,.4-4.8.6s-3.45.3-4.95.3Z"/>
      </g>
      <path class="cls-1" d="m98.66,197.32c-25.28,0-45.85-20.57-45.85-45.85v-6.96h-6.96C20.57,144.51,0,123.94,0,98.66s20.57-45.85,45.85-45.85h6.96v-6.96C52.81,20.57,73.38,0,98.66,0s45.85,20.57,45.85,45.85v6.96h6.96c25.28,0,45.85,20.57,45.85,45.85s-20.57,45.85-45.85,45.85h-6.96v6.96c0,25.28-20.57,45.85-45.85,45.85Zm-25-52.81v6.96c0,13.79,11.22,25,25,25s25-11.22,25-25v-6.96h-50.01Zm0-20.84h77.82c13.79,0,25-11.22,25-25s-11.22-25-25-25h-27.81v-27.81c0-13.79-11.22-25-25-25s-25,11.22-25,25v77.82Zm-27.81-50.01c-13.79,0-25,11.22-25,25s11.22,25,25,25h6.96v-50.01h-6.96Z"/>
    </g>
  </g>
</svg>